<svg width="60" height="60" viewBox="0 0 60 60" fill="none" xmlns="http://www.w3.org/2000/svg">
<path d="M30 0C24.0666 0 18.2664 1.75947 13.3329 5.05591C8.39943 8.35235 4.55426 13.0377 2.28363 18.5195C0.0129985 24.0013 -0.581101 30.0333 0.576455 35.8527C1.73401 41.6721 4.59123 47.0176 8.78681 51.2132C12.9824 55.4088 18.3279 58.266 24.1473 59.4235C29.9667 60.5811 35.9987 59.987 41.4805 57.7164C46.9623 55.4457 51.6476 51.6006 54.9441 46.6671C58.2405 41.7336 60 35.9334 60 30C59.9916 22.0461 56.8282 14.4203 51.2039 8.79607C45.5797 3.1718 37.9539 0.00839948 30 0ZM30 55.3846C24.9794 55.3846 20.0716 53.8958 15.8971 51.1065C11.7226 48.3172 8.46899 44.3527 6.54769 39.7143C4.62638 35.0758 4.12368 29.9718 5.10316 25.0477C6.08263 20.1236 8.50028 15.6005 12.0504 12.0504C15.6005 8.50026 20.1236 6.08261 25.0477 5.10314C29.9718 4.12367 35.0758 4.62637 39.7143 6.54767C44.3527 8.46897 48.3172 11.7226 51.1065 15.8971C53.8958 20.0715 55.3846 24.9794 55.3846 30C55.377 36.7301 52.7001 43.1823 47.9412 47.9412C43.1823 52.7001 36.7301 55.377 30 55.3846ZM38.5558 28.3673C38.7703 28.5816 38.9406 28.8361 39.0567 29.1163C39.1728 29.3964 39.2326 29.6967 39.2326 30C39.2326 30.3033 39.1728 30.6036 39.0567 30.8837C38.9406 31.1639 38.7703 31.4184 38.5558 31.6327L27.0173 43.1711C26.8029 43.3856 26.5484 43.5556 26.2682 43.6717C25.9881 43.7877 25.6878 43.8474 25.3846 43.8474C25.0814 43.8474 24.7812 43.7877 24.501 43.6717C24.2209 43.5556 23.9663 43.3856 23.7519 43.1711C23.5375 42.9567 23.3674 42.7022 23.2514 42.4221C23.1354 42.1419 23.0756 41.8417 23.0756 41.5385C23.0756 41.2352 23.1354 40.935 23.2514 40.6548C23.3674 40.3747 23.5375 40.1202 23.7519 39.9058L33.6606 30L23.7519 20.0942C23.3189 19.6612 23.0756 19.0739 23.0756 18.4615C23.0756 17.8492 23.3189 17.2619 23.7519 16.8288C24.1849 16.3958 24.7722 16.1526 25.3846 16.1526C25.997 16.1526 26.5843 16.3958 27.0173 16.8288L38.5558 28.3673Z" fill="black" fill-opacity="0.8"/>
</svg>
